<?xml version="1.0" standalone="no"?>
<!DOCTYPE svg PUBLIC "-//W3C//DTD SVG 20010904//EN"
 "http://www.w3.org/TR/2001/REC-SVG-20010904/DTD/svg10.dtd">
<svg version="1.0" xmlns="http://www.w3.org/2000/svg"
 width="600.000000pt" height="400.000000pt" viewBox="0 0 600.000000 400.000000"
 preserveAspectRatio="xMidYMid meet">

<g transform="translate(0.000000,400.000000) scale(0.100000,-0.100000)"
fill="#000000" stroke="none">
<path d="M2815 2819 c-194 -18 -399 -72 -561 -148 -46 -22 -95 -51 -109 -65
-24 -25 -25 -28 -25 -168 0 -112 3 -148 15 -165 43 -62 316 -168 531 -206 l31
-6 15 75 c11 54 12 77 4 79 -6 2 -38 9 -71 15 -131 25 -365 101 -365 119 0 13
194 79 313 105 64 15 153 29 197 33 l80 6 0 -30 c0 -65 -22 -242 -42 -338 -38
-187 -94 -347 -184 -529 -35 -70 -64 -136 -64 -145 0 -9 95 -118 210 -243
l209 -227 210 229 c116 125 211 234 211 240 0 7 -31 76 -70 153 -130 265 -220
606 -220 841 l0 49 76 -6 c147 -13 395 -76 489 -125 l30 -15 -55 -25 c-66 -29
-274 -87 -348 -97 -48 -6 -53 -9 -49 -29 3 -11 11 -47 17 -79 10 -51 14 -57
33 -52 136 29 250 60 314 85 118 46 216 102 230 130 19 37 17 273 -2 309 -10
21 -40 41 -107 74 -270 131 -608 187 -943 156z"/>
</g>
</svg>
